# Blender v2.74 (sub 0) OBJ File: 'MidtermMap.blend'
# www.blender.org
mtllib MidtermMap.mtl
o Plane.017
v -3.008002 -0.002563 -0.002666
v -1.008002 -0.002563 -0.002666
v -3.008002 -0.002563 -2.002666
v -1.008002 -0.002563 -2.002666
vt 0.999900 0.000100
vt 0.999900 0.999900
vt 0.000100 0.999900
vt 0.000100 0.000100
vn 0.000000 1.000000 0.000000
usemtl Material.002
s off
f 2/1/1 4/2/1 3/3/1
f 1/4/1 2/1/1 3/3/1
o Plane.016
v -3.008002 -0.002563 -2.001100
v -1.008002 -0.002563 -2.001100
v -3.008002 -0.002563 -4.001101
v -1.008002 -0.002563 -4.001101
vt 0.999900 0.000100
vt 0.999900 0.999900
vt 0.000100 0.999900
vt 0.000100 0.000100
vn 0.000000 1.000000 0.000000
usemtl Material.002
s off
f 6/5/2 8/6/2 7/7/2
f 5/8/2 6/5/2 7/7/2
o Plane.015
v -3.008002 -0.002563 -4.002017
v -1.008002 -0.002563 -4.002017
v -3.008002 -0.002563 -6.002017
v -1.008002 -0.002563 -6.002017
vt 0.999900 0.000100
vt 0.999900 0.999900
vt 0.000100 0.999900
vt 0.000100 0.000100
vn 0.000000 1.000000 0.000000
usemtl Material.002
s off
f 10/9/3 12/10/3 11/11/3
f 9/12/3 10/9/3 11/11/3
o Plane.014
v -1.003398 -0.002563 -4.002017
v 0.996602 -0.002563 -4.002017
v -1.003398 -0.002563 -6.002017
v 0.996602 -0.002563 -6.002017
vt 0.999900 0.000100
vt 0.999900 0.999900
vt 0.000100 0.999900
vt 0.000100 0.000100
vn 0.000000 1.000000 0.000000
usemtl Material.002
s off
f 14/13/4 16/14/4 15/15/4
f 13/16/4 14/13/4 15/15/4
o Plane.013
v -1.003398 -0.002563 -2.001100
v 0.996602 -0.002563 -2.001100
v -1.003398 -0.002563 -4.001101
v 0.996602 -0.002563 -4.001101
vt 0.999900 0.000100
vt 0.999900 0.999900
vt 0.000100 0.999900
vt 0.000100 0.000100
vn 0.000000 1.000000 0.000000
usemtl Material.002
s off
f 18/17/5 20/18/5 19/19/5
f 17/20/5 18/17/5 19/19/5
o Plane.012
v -1.003398 -0.002563 -0.002666
v 0.996602 -0.002563 -0.002666
v -1.003398 -0.002563 -2.002666
v 0.996602 -0.002563 -2.002666
vt 0.999900 0.000100
vt 0.999900 0.999900
vt 0.000100 0.999900
vt 0.000100 0.000100
vn 0.000000 1.000000 0.000000
usemtl Material.002
s off
f 22/21/6 24/22/6 23/23/6
f 21/24/6 22/21/6 23/23/6
o Plane.011
v 0.998548 -0.002563 -0.002666
v 2.998548 -0.002563 -0.002666
v 0.998548 -0.002563 -2.002666
v 2.998548 -0.002563 -2.002666
vt 0.999900 0.000100
vt 0.999900 0.999900
vt 0.000100 0.999900
vt 0.000100 0.000100
vn 0.000000 1.000000 0.000000
usemtl Material.002
s off
f 26/25/7 28/26/7 27/27/7
f 25/28/7 26/25/7 27/27/7
o Plane.010
v 0.998548 -0.002563 -2.001100
v 2.998548 -0.002563 -2.001100
v 0.998548 -0.002563 -4.001101
v 2.998548 -0.002563 -4.001101
vt 0.999900 0.000100
vt 0.999900 0.999900
vt 0.000100 0.999900
vt 0.000100 0.000100
vn 0.000000 1.000000 0.000000
usemtl Material.002
s off
f 30/29/8 32/30/8 31/31/8
f 29/32/8 30/29/8 31/31/8
o Plane.009
v 0.998548 -0.002563 -4.002017
v 2.998548 -0.002563 -4.002017
v 0.998548 -0.002563 -6.002017
v 2.998548 -0.002563 -6.002017
vt 0.999900 0.000100
vt 0.999900 0.999900
vt 0.000100 0.999900
vt 0.000100 0.000100
vn 0.000000 1.000000 0.000000
usemtl Material.002
s off
f 34/33/9 36/34/9 35/35/9
f 33/36/9 34/33/9 35/35/9
o Plane.008
v 0.998548 -0.002563 2.009846
v 2.998548 -0.002563 2.009846
v 0.998548 -0.002563 0.009846
v 2.998548 -0.002563 0.009846
vt 0.999900 0.000100
vt 0.999900 0.999900
vt 0.000100 0.999900
vt 0.000100 0.000100
vn 0.000000 1.000000 0.000000
usemtl Material.018
s off
f 38/37/10 40/38/10 39/39/10
f 37/40/10 38/37/10 39/39/10
o Plane.007
v 0.998548 -0.002563 4.011116
v 2.998548 -0.002563 4.011116
v 0.998548 -0.002563 2.011116
v 2.998548 -0.002563 2.011116
vt 0.999900 0.000100
vt 0.999900 0.999900
vt 0.000100 0.999900
vt 0.000100 0.000100
vn 0.000000 1.000000 0.000000
usemtl Material.018
s off
f 42/41/11 44/42/11 43/43/11
f 41/44/11 42/41/11 43/43/11
o Plane.006
v 0.998548 -0.002563 6.018406
v 2.998548 -0.002563 6.018406
v 0.998548 -0.002563 4.018406
v 2.998548 -0.002563 4.018406
vt 0.999900 0.000100
vt 0.999900 0.999900
vt 0.000100 0.999900
vt 0.000100 0.000100
vn 0.000000 1.000000 0.000000
usemtl Material.018
s off
f 46/45/12 48/46/12 47/47/12
f 45/48/12 46/45/12 47/47/12
o Plane.005
v -1.003398 -0.002563 6.018406
v 0.996602 -0.002563 6.018406
v -1.003398 -0.002563 4.018406
v 0.996602 -0.002563 4.018406
vt 0.999900 0.000100
vt 0.999900 0.999900
vt 0.000100 0.999900
vt 0.000100 0.000100
vn 0.000000 1.000000 0.000000
usemtl Material.018
s off
f 50/49/13 52/50/13 51/51/13
f 49/52/13 50/49/13 51/51/13
o Plane.004
v -1.003398 -0.002563 4.011116
v 0.996602 -0.002563 4.011116
v -1.003398 -0.002563 2.011116
v 0.996602 -0.002563 2.011116
vt 0.999900 0.000100
vt 0.999900 0.999900
vt 0.000100 0.999900
vt 0.000100 0.000100
vn 0.000000 1.000000 0.000000
usemtl Material.018
s off
f 54/53/14 56/54/14 55/55/14
f 53/56/14 54/53/14 55/55/14
o Plane.003
v -1.003398 -0.002563 2.009846
v 0.996602 -0.002563 2.009846
v -1.003398 -0.002563 0.009846
v 0.996602 -0.002563 0.009846
vt 0.999900 0.000100
vt 0.999900 0.999900
vt 0.000100 0.999900
vt 0.000100 0.000100
vn 0.000000 1.000000 0.000000
usemtl Material.018
s off
f 58/57/15 60/58/15 59/59/15
f 57/60/15 58/57/15 59/59/15
o Plane.002
v -3.008002 -0.002563 2.009846
v -1.008002 -0.002563 2.009846
v -3.008002 -0.002563 0.009846
v -1.008002 -0.002563 0.009846
vt 0.999900 0.000100
vt 0.999900 0.999900
vt 0.000100 0.999900
vt 0.000100 0.000100
vn 0.000000 1.000000 0.000000
usemtl Material.018
s off
f 62/61/16 64/62/16 63/63/16
f 61/64/16 62/61/16 63/63/16
o Plane.001
v -3.008002 -0.002563 4.011116
v -1.008002 -0.002563 4.011116
v -3.008002 -0.002563 2.011116
v -1.008002 -0.002563 2.011116
vt 0.999900 0.000100
vt 0.999900 0.999900
vt 0.000100 0.999900
vt 0.000100 0.000100
vn 0.000000 1.000000 0.000000
usemtl Material.018
s off
f 66/65/17 68/66/17 67/67/17
f 65/68/17 66/65/17 67/67/17
o Plane
v -3.008002 -0.002563 6.007780
v -1.008002 -0.002563 6.007780
v -3.008002 -0.002563 4.007780
v -1.008002 -0.002563 4.007780
vt 0.999900 0.000100
vt 0.999900 0.999900
vt 0.000100 0.999900
vt 0.000100 0.000100
vn 0.000000 1.000000 0.000000
usemtl Material.018
s off
f 70/69/18 72/70/18 71/71/18
f 69/72/18 70/69/18 71/71/18
