# Blender v2.74 (sub 0) OBJ File: 'MidtermMap.blend'
# www.blender.org
mtllib MidtermMapSingle.mtl
o Plane.013
v -3.004603 0.000000 2.998435
v -1.004603 0.000000 2.998435
v -3.004603 0.000000 0.998435
v -1.004603 0.000000 0.998435
v -3.004603 0.000000 1.000000
v -1.004603 0.000000 1.000000
v -3.004603 0.000000 -1.000000
v -1.004603 0.000000 -1.000000
v -3.004603 0.000000 -1.000916
v -1.004603 0.000000 -1.000916
v -3.004603 0.000000 -3.000916
v -1.004603 0.000000 -3.000916
v -1.000000 0.000000 -1.000916
v 1.000000 0.000000 -1.000916
v -1.000000 0.000000 -3.000916
v 1.000000 0.000000 -3.000916
v -1.000000 0.000000 1.000000
v 1.000000 0.000000 1.000000
v -1.000000 0.000000 -1.000000
v 1.000000 0.000000 -1.000000
v -1.000000 0.000000 2.998435
v 1.000000 0.000000 2.998435
v -1.000000 0.000000 0.998435
v 1.000000 0.000000 0.998435
v 1.001946 0.000000 2.998435
v 3.001946 0.000000 2.998435
v 1.001946 0.000000 0.998435
v 3.001946 0.000000 0.998435
v 1.006438 0.000000 1.000000
v 3.006438 0.000000 1.000000
v 1.006438 0.000000 -1.000000
v 3.006438 0.000000 -1.000000
v 1.001946 0.000000 -1.000916
v 3.001946 0.000000 -1.000916
v 1.001946 0.000000 -3.000916
v 3.001946 0.000000 -3.000916
vt 0.999900 0.000100
vt 0.999900 0.999900
vt 0.000100 0.999900
vt 0.000100 0.000100
vn 0.000000 1.000000 0.000000
usemtl Material.002
s off
f 2/1/1 4/2/1 3/3/1
f 6/1/1 8/2/1 7/3/1
f 10/1/1 12/2/1 11/3/1
f 14/1/1 16/2/1 15/3/1
f 18/1/1 20/2/1 19/3/1
f 22/1/1 24/2/1 23/3/1
f 26/1/1 28/2/1 27/3/1
f 30/1/1 32/2/1 31/3/1
f 34/1/1 36/2/1 35/3/1
f 1/4/1 2/1/1 3/3/1
f 5/4/1 6/1/1 7/3/1
f 9/4/1 10/1/1 11/3/1
f 13/4/1 14/1/1 15/3/1
f 17/4/1 18/1/1 19/3/1
f 21/4/1 22/1/1 23/3/1
f 25/4/1 26/1/1 27/3/1
f 29/4/1 30/1/1 31/3/1
f 33/4/1 34/1/1 35/3/1
